<?xml version="1.0" encoding="utf-8"?>
<!-- Generator: Adobe Illustrator 24.1.2, SVG Export Plug-In . SVG Version: 6.00 Build 0)  -->
<svg version="1.1" id="Warstwa_3" xmlns="http://www.w3.org/2000/svg" xmlns:xlink="http://www.w3.org/1999/xlink" x="0px" y="0px"
	 viewBox="0 0 430 430" style="enable-background:new 0 0 430 430;" xml:space="preserve">
<style type="text/css">
	.st0{fill:#08A88A;}
	.st1{fill:#121331;}
	.st2{fill:none;}
	.st3{fill:#08A88A;fill-opacity:0;}
</style>
<g>
	<path class="st1" d="M335.01,382.9H111.68c-15.48,0-28.07-12.59-28.07-28.07V214.85c0-3.48,2.82-6.3,6.3-6.3h266.87
		c3.48,0,6.3,2.82,6.3,6.3v139.99C363.08,370.31,350.49,382.9,335.01,382.9z M96.21,221.15v133.69c0,8.53,6.94,15.47,15.47,15.47
		h223.33c8.53,0,15.47-6.94,15.47-15.47V221.15H96.21z"/>
	<path class="st1" d="M356.78,275.16H89.91c-3.48,0-6.3-2.82-6.3-6.3s2.82-6.3,6.3-6.3h266.87c3.48,0,6.3,2.82,6.3,6.3
		S360.26,275.16,356.78,275.16z"/>
	<path class="st1" d="M114.68,274.68c-0.68,0-1.37-0.11-2.05-0.34c-3.29-1.13-5.04-4.72-3.91-8.01l18.26-53.05
		c1.13-3.29,4.71-5.04,8.01-3.91c3.29,1.13,5.04,4.72,3.91,8.01l-18.26,53.05C119.74,273.04,117.29,274.68,114.68,274.68z"/>
	<path class="st1" d="M164.72,274.68c-0.68,0-1.37-0.11-2.05-0.34c-3.29-1.13-5.04-4.72-3.91-8.01l18.26-53.05
		c1.13-3.29,4.72-5.04,8.01-3.91c3.29,1.13,5.04,4.72,3.91,8.01l-18.26,53.05C169.77,273.04,167.33,274.68,164.72,274.68z"/>
	<path class="st1" d="M214.75,274.68c-0.68,0-1.37-0.11-2.05-0.34c-3.29-1.13-5.04-4.72-3.91-8.01l18.26-53.05
		c1.13-3.29,4.72-5.04,8.01-3.91c3.29,1.13,5.04,4.72,3.91,8.01l-18.26,53.05C219.81,273.04,217.37,274.68,214.75,274.68z"/>
	<path class="st1" d="M264.79,274.68c-0.68,0-1.37-0.11-2.05-0.34c-3.29-1.13-5.04-4.72-3.91-8.01l18.26-53.05
		c1.13-3.29,4.72-5.04,8.01-3.91c3.29,1.13,5.04,4.72,3.91,8.01l-18.26,53.05C269.85,273.04,267.41,274.68,264.79,274.68z"/>
	<path class="st1" d="M314.83,274.68c-0.68,0-1.37-0.11-2.05-0.34c-3.29-1.13-5.04-4.72-3.91-8.01l18.26-53.05
		c1.13-3.29,4.71-5.04,8.01-3.91c3.29,1.13,5.04,4.72,3.91,8.01l-18.26,53.05C319.89,273.04,317.44,274.68,314.83,274.68z"/>
	<path class="st0" d="M210,358.76c-1.01,0-2.03-0.25-2.96-0.74c-2.05-1.09-3.34-3.23-3.34-5.56v-53.37c0-2.33,1.28-4.47,3.34-5.56
		c2.06-1.09,4.55-0.96,6.48,0.33l39.68,26.69c1.74,1.17,2.78,3.13,2.78,5.23s-1.04,4.06-2.78,5.23l-39.68,26.69
		C212.46,358.4,211.23,358.76,210,358.76z M216.3,310.91v29.71l22.09-14.86L216.3,310.91z"/>
	<path class="st0" d="M89.9,221.15c-0.65,0-1.3-0.1-1.93-0.3c-1.59-0.51-2.91-1.64-3.67-3.12l-14.28-27.84
		c-3.42-6.67-4.04-14.27-1.74-21.41s7.24-12.95,13.91-16.37L280.91,50.19c13.77-7.06,30.72-1.6,37.78,12.17l14.28,27.84
		c0.76,1.49,0.9,3.22,0.39,4.81c-0.51,1.59-1.64,2.91-3.12,3.67L92.77,220.45C91.88,220.91,90.89,221.15,89.9,221.15z M293.69,59.7
		c-2.37,0-4.78,0.55-7.03,1.7L87.94,163.31c-3.68,1.89-6.4,5.09-7.66,9.02c-1.27,3.93-0.93,8.12,0.96,11.8l11.4,22.24L318.88,90.34
		l-11.4-22.23C304.75,62.77,299.31,59.7,293.69,59.7z"/>
	<path class="st0" d="M128.19,201.51c-1.57,0-3.14-0.58-4.36-1.76l-40.46-38.88c-2.51-2.41-2.59-6.4-0.18-8.91
		c2.41-2.51,6.4-2.59,8.91-0.18l40.46,38.88c2.51,2.41,2.59,6.4,0.18,8.91C131.5,200.86,129.84,201.51,128.19,201.51z"/>
	<path class="st0" d="M172.71,178.68c-1.57,0-3.14-0.58-4.36-1.76l-40.46-38.87c-2.51-2.41-2.59-6.4-0.18-8.91
		c2.41-2.51,6.4-2.59,8.91-0.18l40.46,38.87c2.51,2.41,2.59,6.4,0.18,8.91C176.02,178.03,174.37,178.68,172.71,178.68z"/>
	<path class="st0" d="M217.24,155.85c-1.57,0-3.14-0.58-4.36-1.76l-40.46-38.87c-2.51-2.41-2.59-6.4-0.18-8.91
		c2.41-2.51,6.4-2.59,8.91-0.18L221.6,145c2.51,2.41,2.59,6.4,0.18,8.91C220.54,155.2,218.89,155.85,217.24,155.85z"/>
	<path class="st0" d="M261.76,133.01c-1.57,0-3.14-0.58-4.36-1.76l-40.46-38.88c-2.51-2.41-2.59-6.4-0.18-8.91
		c2.41-2.51,6.4-2.59,8.91-0.18l40.46,38.88c2.51,2.41,2.59,6.4,0.18,8.91C265.07,132.37,263.42,133.01,261.76,133.01z"/>
	<path class="st0" d="M306.29,110.18c-1.57,0-3.14-0.58-4.36-1.76l-40.46-38.88c-2.51-2.41-2.59-6.4-0.18-8.91
		c2.41-2.51,6.4-2.59,8.91-0.18l40.46,38.88c2.51,2.41,2.59,6.4,0.18,8.91C309.59,109.54,307.94,110.18,306.29,110.18z"/>
</g>
</svg>
